<svg width="25" height="25" viewBox="0 0 25 25" fill="none" xmlns="http://www.w3.org/2000/svg">
<path d="M12.0898 0C19.0137 0 24.2188 5.37598 24.2188 12.1094C24.2188 19.292 18.4326 24.2188 12.0898 24.2188C5.54688 24.2188 0 18.8721 0 12.1094C0 5.62012 5.11231 0 12.0898 0ZM12.1289 2.18262C6.35742 2.18262 2.18262 6.96289 2.18262 12.1094C2.18262 17.4707 6.63574 22.0117 12.1289 22.0117C17.168 22.0117 22.0312 18.0518 22.0312 12.1094C22.0361 6.55273 17.627 2.18262 12.1289 2.18262ZM17.0605 8.64746C17.4414 8.64746 17.7295 8.94531 17.7295 9.31641V18.2275C17.7295 18.6035 17.4316 18.8965 17.0605 18.8965H10.4639C10.0879 18.8965 9.79492 18.6035 9.79492 18.2275V15.5908H7.1582C6.77734 15.5908 6.48926 15.2979 6.48926 14.9219V6.01074C6.48926 5.61035 6.81152 5.39062 7.09473 5.3418H13.7549C14.1309 5.3418 14.4238 5.63477 14.4238 6.01074V8.64746H17.0605ZM7.80762 14.2725H9.79492V9.32129C9.79492 8.95996 10.0781 8.70605 10.3809 8.65234H13.1055V6.68457H7.80762V14.2725ZM16.4111 9.9707H11.1133V17.5586H16.4111V9.9707Z" fill="#293451" fill-opacity="0.25"/>
</svg>
