<svg width="27" height="24" viewBox="0 0 27 24" fill="none" xmlns="http://www.w3.org/2000/svg">
<path d="M7.37498 9.85714V14.1429C7.37498 14.5843 7.02482 14.9286 6.60936 14.9286H1.26562C0.850167 14.9286 0.5 14.5843 0.5 14.1429V9.85714C0.5 9.41574 0.850167 9.07143 1.26562 9.07143H6.60936C7.02482 9.07143 7.37498 9.41574 7.37498 9.85714ZM0.5 22.7143V18.4286C0.5 17.9872 0.850167 17.6429 1.26562 17.6429H6.60936C7.02482 17.6429 7.37498 17.9872 7.37498 18.4286V22.7143C7.37498 23.1557 7.02482 23.5 6.60936 23.5H1.26562C0.850167 23.5 0.5 23.1557 0.5 22.7143ZM1.26562 0.5H6.60936C7.02482 0.5 7.37498 0.844314 7.37498 1.28571V5.57143C7.37498 6.01283 7.02482 6.35714 6.60936 6.35714H1.26562C0.850167 6.35714 0.5 6.01283 0.5 5.57143V1.28571C0.5 0.844315 0.850167 0.5 1.26562 0.5ZM25.7344 23.5H10.8281C10.4127 23.5 10.0625 23.1557 10.0625 22.7143V18.4286C10.0625 17.9872 10.4127 17.6429 10.8281 17.6429H25.7344C26.1498 17.6429 26.5 17.9872 26.5 18.4286V22.7143C26.5 23.1557 26.1498 23.5 25.7344 23.5ZM10.0625 5.57143V1.28571C10.0625 0.844315 10.4127 0.5 10.8281 0.5H25.7344C26.1498 0.5 26.5 0.844315 26.5 1.28571V5.57143C26.5 6.01283 26.1498 6.35714 25.7344 6.35714H10.8281C10.4127 6.35714 10.0625 6.01283 10.0625 5.57143ZM25.7344 14.9286H10.8281C10.4127 14.9286 10.0625 14.5843 10.0625 14.1429V9.85714C10.0625 9.41574 10.4127 9.07143 10.8281 9.07143H25.7344C26.1498 9.07143 26.5 9.41574 26.5 9.85714V14.1429C26.5 14.5843 26.1498 14.9286 25.7344 14.9286Z" stroke="#293451"/>
</svg>
