<svg width="73" height="100" viewBox="0 0 73 100" fill="none" xmlns="http://www.w3.org/2000/svg">
<path d="M12.33 67.6861V66.6361L13.17 66.5521C14.15 66.4401 14.892 66.3001 15.396 66.1321C15.928 65.9641 16.292 65.5721 16.488 64.9561C16.684 64.3401 16.782 63.3461 16.782 61.9741V43.3261C16.782 41.9261 16.684 40.9321 16.488 40.3441C16.292 39.7281 15.928 39.3361 15.396 39.1681C14.892 38.9721 14.15 38.8321 13.17 38.7481L12.33 38.6641V37.6141L18.63 37.7401L24.048 37.6141V38.5801L23.376 38.6641C22.564 38.7481 21.934 38.8741 21.486 39.0421C21.066 39.2101 20.772 39.5741 20.604 40.1341C20.436 40.6661 20.352 41.5621 20.352 42.8221V60.3361C20.352 61.7081 20.422 62.8421 20.562 63.7381C20.73 64.6341 21.164 65.2921 21.864 65.7121C22.564 66.1321 23.698 66.3421 25.266 66.3421H28.416C30.852 66.3421 32.602 65.6981 33.666 64.4101C34.758 63.0941 35.402 61.2041 35.598 58.7401H36.522L36.102 67.6861L18.546 67.5601L12.33 67.6861Z" fill="#A3925F"/>
<path d="M54.944 50.162C53.404 50.162 52.256 49.644 51.5 48.608C50.772 47.544 50.296 46.242 50.072 44.702C49.932 43.582 49.708 42.462 49.4 41.342C49.12 40.222 48.658 39.2 48.014 38.276C47.398 37.324 46.516 36.568 45.368 36.008C44.248 35.448 42.778 35.168 40.958 35.168H39.152V44.114C39.152 45.486 39.25 46.48 39.446 47.096C39.642 47.684 40.006 48.076 40.538 48.272C41.07 48.44 41.812 48.58 42.764 48.692L43.604 48.776V49.826L37.388 49.7H37.346L31.13 49.826V48.776L31.97 48.692C32.95 48.58 33.692 48.44 34.196 48.272C34.728 48.076 35.092 47.684 35.288 47.096C35.484 46.48 35.582 45.486 35.582 44.114V25.466C35.582 24.0659 35.484 23.072 35.288 22.484C35.092 21.896 34.728 21.518 34.196 21.35C33.692 21.1539 32.95 20.9999 31.97 20.8879L31.13 20.804V19.7539L37.346 19.8799H43.226C45.13 19.8799 46.894 20.104 48.518 20.552C50.142 20.972 51.444 21.714 52.424 22.7779C53.432 23.8419 53.936 25.3259 53.936 27.23C53.936 28.91 53.558 30.282 52.802 31.346C52.074 32.382 51.094 33.18 49.862 33.74C48.658 34.2719 47.342 34.65 45.914 34.874C47.986 35.014 49.666 35.728 50.954 37.016C52.27 38.276 53.11 40.138 53.474 42.602C53.726 44.17 54.034 45.402 54.398 46.298C54.79 47.166 55.21 47.782 55.658 48.146C56.134 48.482 56.61 48.65 57.086 48.65C57.394 48.65 57.688 48.594 57.968 48.482C58.276 48.37 58.542 48.258 58.766 48.146L59.06 49.196C58.612 49.42 58.01 49.63 57.254 49.826C56.498 50.05 55.728 50.162 54.944 50.162ZM43.31 20.972H39.152V34.034H42.68C45.368 34.034 47.244 33.488 48.308 32.3959C49.4 31.3039 49.946 29.6659 49.946 27.4819C49.946 25.4099 49.456 23.8139 48.476 22.694C47.496 21.546 45.774 20.972 43.31 20.972Z" fill="#A3925F"/>
<path d="M49.008 84.002C47.888 84.002 46.866 83.82 45.942 83.456C45.046 83.092 44.234 82.728 43.506 82.364C42.89 82.028 42.372 81.776 41.952 81.608C41.56 81.44 41.21 81.356 40.902 81.356C40.51 81.356 40.23 81.524 40.062 81.86C39.922 82.168 39.81 82.518 39.726 82.91L39.6 83.54H38.55L38.76 78.584L38.634 73.166H39.684L40.146 75.14C40.454 76.372 41 77.576 41.784 78.752C42.596 79.928 43.604 80.894 44.808 81.65C46.04 82.406 47.44 82.784 49.008 82.784C49.876 82.784 50.702 82.602 51.486 82.238C52.298 81.846 52.956 81.258 53.46 80.474C53.992 79.69 54.258 78.668 54.258 77.408C54.258 75.532 53.642 74.02 52.41 72.872C51.206 71.724 49.526 70.632 47.37 69.596L45.606 68.756C43.506 67.748 41.938 66.642 40.902 65.438C39.894 64.206 39.39 62.638 39.39 60.734C39.39 59.25 39.754 57.934 40.482 56.786C41.21 55.638 42.204 54.742 43.464 54.098C44.752 53.454 46.222 53.132 47.874 53.132C49.022 53.132 49.988 53.286 50.772 53.594C51.556 53.902 52.172 54.168 52.62 54.392C53.348 54.756 53.922 54.938 54.342 54.938C54.79 54.938 55.056 54.504 55.14 53.636H56.19L56.064 57.668L56.148 61.742H55.098C54.93 60.174 54.496 58.844 53.796 57.752C53.096 56.632 52.242 55.778 51.234 55.19C50.254 54.602 49.204 54.308 48.084 54.308C46.432 54.308 45.088 54.784 44.052 55.736C43.044 56.688 42.54 57.906 42.54 59.39C42.54 60.986 43.058 62.246 44.094 63.17C45.13 64.066 46.474 64.92 48.126 65.732L49.848 66.572C51.388 67.328 52.704 68.112 53.796 68.924C54.916 69.708 55.77 70.632 56.358 71.696C56.974 72.76 57.282 74.09 57.282 75.686C57.282 77.338 56.904 78.794 56.148 80.054C55.42 81.314 54.426 82.294 53.166 82.994C51.934 83.666 50.548 84.002 49.008 84.002Z" fill="white"/>
<rect x="1.63" y="1.5" width="69.74" height="97" rx="4.5" stroke="white" stroke-width="3"/>
</svg>
