<svg width="75" height="104" viewBox="0 0 75 104" fill="none" xmlns="http://www.w3.org/2000/svg">
<path d="M12.4547 68.8584V67.8084L13.2947 67.7244C14.2747 67.6124 15.0167 67.4724 15.5207 67.3044C16.0527 67.1364 16.4167 66.7444 16.6127 66.1284C16.8087 65.5124 16.9067 64.5184 16.9067 63.1464V44.4984C16.9067 43.0984 16.8087 42.1044 16.6127 41.5164C16.4167 40.9004 16.0527 40.5084 15.5207 40.3404C15.0167 40.1444 14.2747 40.0044 13.2947 39.9204L12.4547 39.8364V38.7864L18.7547 38.9124L24.1727 38.7864V39.7524L23.5007 39.8364C22.6887 39.9204 22.0587 40.0464 21.6107 40.2144C21.1907 40.3824 20.8967 40.7464 20.7287 41.3064C20.5607 41.8384 20.4767 42.7344 20.4767 43.9944V61.5084C20.4767 62.8804 20.5467 64.0144 20.6867 64.9104C20.8547 65.8064 21.2887 66.4644 21.9887 66.8844C22.6887 67.3044 23.8227 67.5144 25.3907 67.5144H28.5407C30.9767 67.5144 32.7267 66.8704 33.7907 65.5824C34.8827 64.2664 35.5267 62.3764 35.7227 59.9124H36.6467L36.2267 68.8584L18.6707 68.7324L12.4547 68.8584Z" fill="#293451"/>
<path d="M55.7052 50.7296C54.1652 50.7296 53.0172 50.2116 52.2612 49.1756C51.5332 48.1116 51.0572 46.8096 50.8332 45.2696C50.6932 44.1496 50.4692 43.0296 50.1612 41.9096C49.8812 40.7896 49.4192 39.7676 48.7752 38.8436C48.1592 37.8916 47.2772 37.1356 46.1292 36.5756C45.0092 36.0156 43.5392 35.7356 41.7192 35.7356H39.9132V44.6816C39.9132 46.0536 40.0112 47.0476 40.2072 47.6636C40.4032 48.2516 40.7672 48.6436 41.2992 48.8396C41.8312 49.0076 42.5732 49.1476 43.5252 49.2596L44.3652 49.3436V50.3936L38.1492 50.2676H38.1072L31.8912 50.3936V49.3436L32.7312 49.2596C33.7112 49.1476 34.4532 49.0076 34.9572 48.8396C35.4892 48.6436 35.8532 48.2516 36.0492 47.6636C36.2452 47.0476 36.3432 46.0536 36.3432 44.6816V26.0336C36.3432 24.6336 36.2452 23.6396 36.0492 23.0516C35.8532 22.4636 35.4892 22.0856 34.9572 21.9176C34.4532 21.7216 33.7112 21.5676 32.7312 21.4556L31.8912 21.3716V20.3216L38.1072 20.4476H43.9872C45.8912 20.4476 47.6552 20.6716 49.2792 21.1196C50.9032 21.5396 52.2052 22.2816 53.1852 23.3456C54.1932 24.4096 54.6972 25.8936 54.6972 27.7976C54.6972 29.4776 54.3192 30.8496 53.5632 31.9136C52.8352 32.9496 51.8552 33.7476 50.6232 34.3076C49.4192 34.8396 48.1032 35.2176 46.6752 35.4416C48.7472 35.5816 50.4272 36.2956 51.7152 37.5836C53.0312 38.8436 53.8712 40.7056 54.2352 43.1696C54.4872 44.7376 54.7952 45.9696 55.1592 46.8656C55.5512 47.7336 55.9712 48.3496 56.4192 48.7136C56.8952 49.0496 57.3712 49.2176 57.8472 49.2176C58.1552 49.2176 58.4492 49.1616 58.7292 49.0496C59.0372 48.9376 59.3032 48.8256 59.5272 48.7136L59.8212 49.7636C59.3732 49.9876 58.7712 50.1976 58.0152 50.3936C57.2592 50.6176 56.4892 50.7296 55.7052 50.7296ZM44.0712 21.5396H39.9132V34.6016H43.4412C46.1292 34.6016 48.0052 34.0556 49.0692 32.9636C50.1612 31.8716 50.7072 30.2336 50.7072 28.0496C50.7072 25.9776 50.2172 24.3816 49.2372 23.2616C48.2572 22.1136 46.5352 21.5396 44.0712 21.5396Z" fill="#293451"/>
<path d="M49.9921 85.7155C48.8721 85.7155 47.8501 85.5335 46.9261 85.1695C46.0301 84.8055 45.2181 84.4415 44.4901 84.0775C43.8741 83.7415 43.3561 83.4895 42.9361 83.3215C42.5441 83.1535 42.1941 83.0695 41.8861 83.0695C41.4941 83.0695 41.2141 83.2375 41.0461 83.5735C40.9061 83.8815 40.7941 84.2315 40.7101 84.6235L40.5841 85.2535H39.5341L39.7441 80.2975L39.6181 74.8795H40.6681L41.1301 76.8535C41.4381 78.0855 41.9841 79.2895 42.7681 80.4655C43.5801 81.6415 44.5881 82.6075 45.7921 83.3635C47.0241 84.1195 48.4241 84.4975 49.9921 84.4975C50.8601 84.4975 51.6861 84.3155 52.4701 83.9515C53.2821 83.5595 53.9401 82.9715 54.4441 82.1875C54.9761 81.4035 55.2421 80.3815 55.2421 79.1215C55.2421 77.2455 54.6261 75.7335 53.3941 74.5855C52.1901 73.4375 50.5101 72.3455 48.3541 71.3095L46.5901 70.4695C44.4901 69.4615 42.9221 68.3555 41.8861 67.1515C40.8781 65.9195 40.3741 64.3515 40.3741 62.4475C40.3741 60.9635 40.7381 59.6475 41.4661 58.4995C42.1941 57.3515 43.1881 56.4555 44.4481 55.8115C45.7361 55.1675 47.2061 54.8455 48.8581 54.8455C50.0061 54.8455 50.9721 54.9995 51.7561 55.3075C52.5401 55.6155 53.1561 55.8815 53.6041 56.1055C54.3321 56.4695 54.9061 56.6515 55.3261 56.6515C55.7741 56.6515 56.0401 56.2175 56.1241 55.3495H57.1741L57.0481 59.3815L57.1321 63.4555H56.0821C55.9141 61.8875 55.4801 60.5575 54.7801 59.4655C54.0801 58.3455 53.2261 57.4915 52.2181 56.9035C51.2381 56.3155 50.1881 56.0215 49.0681 56.0215C47.4161 56.0215 46.0721 56.4975 45.0361 57.4495C44.0281 58.4015 43.5241 59.6195 43.5241 61.1035C43.5241 62.6995 44.0421 63.9595 45.0781 64.8835C46.1141 65.7795 47.4581 66.6335 49.1101 67.4455L50.8321 68.2855C52.3721 69.0415 53.6881 69.8255 54.7801 70.6375C55.9001 71.4215 56.7541 72.3455 57.3421 73.4095C57.9581 74.4735 58.2661 75.8035 58.2661 77.3995C58.2661 79.0515 57.8881 80.5075 57.1321 81.7675C56.4041 83.0275 55.4101 84.0075 54.1501 84.7075C52.9181 85.3795 51.5321 85.7155 49.9921 85.7155Z" fill="#A3925F"/>
<rect x="1.5" y="1.90845" width="72" height="100.183" rx="4.5" stroke="#A3925F" stroke-width="3"/>
</svg>
