<svg width="25" height="25" viewBox="0 0 25 25" fill="none" xmlns="http://www.w3.org/2000/svg">
<path d="M21.875 9.375V3.77197C21.875 3.35742 21.7104 2.96045 21.4175 2.66699L19.2075 0.45752C18.9146 0.164551 18.5171 0 18.1025 0H4.6875C3.82471 0 3.125 0.699707 3.125 1.5625V9.375C1.39893 9.375 0 10.7739 0 12.5V17.9688C0 18.4004 0.349609 18.75 0.78125 18.75H3.125V23.4375C3.125 24.3003 3.82471 25 4.6875 25H20.3125C21.1753 25 21.875 24.3003 21.875 23.4375V18.75H24.2188C24.6504 18.75 25 18.4004 25 17.9688V12.5C25 10.7739 23.6011 9.375 21.875 9.375ZM18.75 21.875H6.25V17.1875H18.75V21.875ZM18.75 10.9375H6.25V3.125H15.625V5.46875C15.625 5.90039 15.9746 6.25 16.4062 6.25H18.75V10.9375ZM21.0938 14.4531C20.4468 14.4531 19.9219 13.9282 19.9219 13.2812C19.9219 12.6338 20.4468 12.1094 21.0938 12.1094C21.7407 12.1094 22.2656 12.6338 22.2656 13.2812C22.2656 13.9282 21.7407 14.4531 21.0938 14.4531Z" fill="#293451" fill-opacity="0.25"/>
</svg>
