<svg width="20" height="20" viewBox="0 0 20 20" fill="none" xmlns="http://www.w3.org/2000/svg">
<path d="M10.224 4.9117L10.224 4.91173C9.65954 5.47714 9.21979 6.11809 8.72734 6.83583C8.70053 6.87492 8.67355 6.91424 8.64639 6.95378C8.129 7.70709 7.55539 8.52527 6.75003 9.32306V17.6296C7.12756 17.6416 7.53161 17.7473 7.89759 17.8716C8.27958 18.0013 8.65677 18.1645 8.97022 18.3039L8.76698 18.7607L8.97022 18.3039C10.2154 18.8579 11.6698 19.4993 13.4373 19.5C13.4373 19.5 13.4374 19.5 13.4375 19.5L13.5484 19.5C14.3921 19.5 15.2577 19.4946 16.0079 19.357C16.7657 19.2179 17.2971 18.9626 17.5823 18.5528C17.8094 18.2265 17.8896 17.7972 17.7471 17.2136L17.6821 16.9474L17.8715 16.7493C18.3867 16.2107 18.6759 15.1605 18.3987 14.3337L18.3153 14.085L18.4725 13.8751C19.0401 13.117 19.0984 12.0307 18.7756 11.2647L18.645 10.9548L18.8828 10.717L18.8863 10.7135C18.8864 10.7134 18.8865 10.7132 18.8866 10.7131C19.2507 10.3471 19.5026 9.7239 19.5 9.14702C19.4953 8.23252 18.6991 7.375 17.6737 7.375H13.7001H13.0548L13.2159 6.75017C13.3004 6.42258 13.4356 6.12 13.577 5.8391C13.6446 5.7047 13.7163 5.5703 13.7859 5.43975L13.7956 5.42158C13.8692 5.28352 13.9409 5.14867 14.01 5.01071C14.2832 4.46489 14.5 3.89925 14.5 3.18172C14.5 1.86538 14.0771 1.23678 13.6465 0.915779C13.1881 0.57406 12.6148 0.5 12.1875 0.5C12.1698 0.5 12.1217 0.504065 12.0344 0.59576C11.9427 0.692146 11.8457 0.848431 11.751 1.06118C11.5618 1.48608 11.4371 2.00473 11.3482 2.37444C11.3433 2.39507 11.3383 2.41585 11.3333 2.43676C11.1414 3.23672 10.9028 4.23166 10.224 4.9117ZM6.7178 9.3096V9.3096ZM0.5 8.4375V17.8125C0.5 18.0541 0.695869 18.25 0.937499 18.25H4.06249C4.30412 18.25 4.49999 18.0541 4.49999 17.8125V8.4375C4.49999 8.19587 4.30412 8 4.06249 8H0.937499C0.695869 8 0.5 8.19587 0.5 8.4375ZM2.5 11.4375C1.70608 11.4375 1.0625 10.7939 1.0625 10C1.0625 9.20608 1.70608 8.5625 2.5 8.5625C3.29391 8.5625 3.9375 9.20608 3.9375 10C3.9375 10.7939 3.29391 11.4375 2.5 11.4375Z" stroke="#A3925F"/>
</svg>
